#!OML:ASF H:\Dans Jumps\Project 1\Capture day 1\Session 1\subject.ASF
:FULLY-SPECIFIED
:DEGREES
323
root 0.508384 17.7077 -2.45458 7.8126 -0.741658 -1.06351
lowerback 0.253795 0.0487797 -0.514891
upperback 4.41941 0.0289895 1.2714
thorax 4.40946 -0.0327098 1.60141
lowerneck -11.8457 -0.0990089 -2.07541
upperneck 34.3192 -0.0789268 1.3876
head 13.5541 -0.120402 0.905639
rclavicle 7.45443e-016 3.57812e-015
rhumerus -22.2234 -14.8062 -82.6025
rradius 23.2896
rwrist 33.3029
rhand -18.789 -25.6256
rfingers 7.12502
rthumb 7.50881 -55.4723
lclavicle 7.45443e-016 3.57812e-015
lhumerus -24.5719 -5.21726 90.6824
lradius 18.944
lwrist 9.68884
lhand -25.7129 -1.06343
lfingers 7.12502
lthumb 0.823009 28.9147
rfemur -17.7636 -0.30248 18.0923
rtibia 24.9204
rfoot -13.2972 0.389614
rtoes 13.5062
lfemur -16.1174 6.51759 -18.3369
ltibia 21.975
lfoot -9.96417 6.24327
ltoes 1.70447
324
root 0.508151 17.7102 -2.44759 7.81171 -0.794005 -1.03139
lowerback 0.217062 0.0426421 -0.521445
upperback 4.42797 0.0210974 1.26314
thorax 4.43952 -0.0369468 1.59641
lowerneck -11.8735 -0.0759821 -2.07977
upperneck 34.3392 -0.0351598 1.36254
head 13.5681 -0.105491 0.903141
rclavicle 3.57812e-015 9.14409e-015
rhumerus -22.4139 -14.7451 -82.5788
rradius 23.24
rwrist 33.382
rhand -18.6933 -25.6349
rfingers 7.12502
rthumb 7.60118 -55.4784
lclavicle 3.57812e-015 9.14409e-015
lhumerus -24.5595 -5.26203 90.6528
lradius 18.8819
lwrist 9.52549
lhand -25.6811 -1.21883
lfingers 7.12502
lthumb 0.853765 28.7592
rfemur -17.7076 -0.257557 18.0534
rtibia 24.8523
rfoot -13.2867 0.381146
rtoes 13.4971
lfemur -16.0019 6.52348 -18.367
ltibia 21.8274
lfoot -9.93404 6.26383
ltoes 1.75415
325
root 0.507843 17.7127 -2.44106 7.81267 -0.843474 -1.00055
lowerback 0.183928 0.035222 -0.526921
upperback 4.43383 0.0114559 1.25616
thorax 4.46477 -0.0419987 1.59204
lowerneck -11.8891 -0.0517407 -2.08913
upperneck 34.3479 0.0103727 1.34083
head 13.5745 -0.0899828 0.902969
rclavicle 1.73937e-015 -4.17448e-015
rhumerus -22.599 -14.6885 -82.552
rradius 23.1897
rwrist 33.4628
rhand -18.6054 -25.6449
rfingers 7.12502
rthumb 7.68601 -55.4852
lclavicle 1.73937e-015 -4.17448e-015
lhumerus -24.5378 -5.26104 90.613
lradius 18.8212
lwrist 9.3477
lhand -25.5558 -1.19066
lfingers 7.12502
lthumb 0.974805 28.7869
rfemur -17.6563 -0.215309 18.0171
rtibia 24.7868
rfoot -13.2757 0.371298
rtoes 13.4851
lfemur -15.895 6.53399 -18.396
ltibia 21.688
lfoot -9.90762 6.27757
ltoes 1.81138
326
root 0.507451 17.715 -2.43497 7.81471 -0.891687 -0.97604
lowerback 0.155051 0.0283438 -0.526536
upperback 4.43665 0.00235011 1.25144
thorax 4.48441 -0.0465584 1.58669
lowerneck -11.8941 -0.0275864 -2.10291
upperneck 34.3491 0.0550448 1.32411
head 13.5751 -0.0747259 0.905324
rclavicle 2.83268e-015 7.95139e-016
rhumerus -22.7828 -14.6343 -82.5216
rradius 23.1412
rwrist 33.5416
rhand -18.519 -25.654
rfingers 7.12502
rthumb 7.76946 -55.4912
lclavicle 2.83268e-015 7.95139e-016
lhumerus -24.5071 -5.21923 90.5642
lradius 18.7617
lwrist 9.16641
lhand -25.3599 -1.01198
lfingers 7.12502
lthumb 1.16393 28.9646
rfemur -17.6077 -0.174151 17.9885
rtibia 24.7207
rfoot -13.2632 0.361959
rtoes 13.4736
lfemur -15.7969 6.54903 -18.4183
ltibia 21.5583
lfoot -9.88273 6.28825
ltoes 1.85722
